<?xml version="1.0" encoding="utf-8"?><svg width="auto" height="570" style="overflow:visible " version="1.1" xmlns="http://www.w3.org/2000/svg"><rect x="20" y="20" width="200" height="40" style="fill:white;stroke:black;stroke-width:1" /><text x="30" y="30" font-size="10" style="fill:blue">xsl:stylesheet</text><text x="30" y="40" font-size="8" style="fill:black">version: 1.0</text><text x="30" y="50" font-size="8" style="fill:black">xmlns:xsl: http://www.w3.org/1999/XSL/Transform</text><rect x="240" y="20" width="200" height="40" style="fill:white;stroke:black;stroke-width:1" /><text x="250" y="30" font-size="10" style="fill:blue">xsl:output</text><path d="M220 40 C240 40 220 40 240 40" style="fill:transparent;stroke:black" /><text x="250" y="40" font-size="8" style="fill:black">method: xml</text><text x="250" y="50" font-size="8" style="fill:black">indent: yes</text><text x="250" y="60" font-size="8" style="fill:black">standalone: no</text><text x="250" y="70" font-size="8" style="fill:black">doctype-public: -//W3C//DTD SVG 1.1//EN</text><text x="250" y="80" font-size="8" style="fill:black">doctype-system: http://www.w3.org/Graphics/SVG/1.1/DTD/svg11.dtd</text><text x="250" y="90" font-size="8" style="fill:black">media-type: image/svg</text><rect x="240" y="70" width="200" height="40" style="fill:white;stroke:black;stroke-width:1" /><text x="250" y="80" font-size="10" style="fill:blue">xsl:template</text><path d="M220 40 C240 40 220 90 240 90" style="fill:transparent;stroke:black" /><text x="250" y="90" font-size="8" style="fill:black">match: rutasTuristicas</text><rect x="460" y="70" width="200" height="40" style="fill:white;stroke:black;stroke-width:1" /><text x="470" y="80" font-size="10" style="fill:blue">html</text><path d="M440 90 C460 90 440 90 460 90" style="fill:transparent;stroke:black" /><rect x="680" y="70" width="200" height="40" style="fill:white;stroke:black;stroke-width:1" /><text x="690" y="80" font-size="10" style="fill:blue">body</text><path d="M660 90 C680 90 660 90 680 90" style="fill:transparent;stroke:black" /><rect x="900" y="70" width="200" height="40" style="fill:white;stroke:black;stroke-width:1" /><text x="910" y="80" font-size="10" style="fill:blue">xsl:for-each</text><path d="M880 90 C900 90 880 90 900 90" style="fill:transparent;stroke:black" /><text x="910" y="90" font-size="8" style="fill:black">select: rutaTuristica</text><rect x="1120" y="70" width="200" height="40" style="fill:white;stroke:black;stroke-width:1" /><text x="1130" y="80" font-size="10" style="fill:blue">chart</text><path d="M1100 90 C1120 90 1100 90 1120 90" style="fill:transparent;stroke:black" /><text x="1130" y="90" font-size="8" style="fill:black">type: bar</text><rect x="1340" y="70" width="200" height="40" style="fill:white;stroke:black;stroke-width:1" /><text x="1350" y="80" font-size="10" style="fill:blue">labels</text><path d="M1320 90 C1340 90 1320 90 1340 90" style="fill:transparent;stroke:black" /><rect x="1560" y="70" width="200" height="40" style="fill:white;stroke:black;stroke-width:1" /><text x="1570" y="80" font-size="10" style="fill:blue">xsl:value-of</text><path d="M1540 90 C1560 90 1540 90 1560 90" style="fill:transparent;stroke:black" /><text x="1570" y="90" font-size="8" style="fill:black">select: hitos/hito/@nombre</text><rect x="1340" y="170" width="200" height="40" style="fill:white;stroke:black;stroke-width:1" /><text x="1350" y="180" font-size="10" style="fill:blue">data</text><path d="M1320 90 C1340 90 1320 190 1340 190" style="fill:transparent;stroke:black" /><rect x="1560" y="170" width="200" height="40" style="fill:white;stroke:black;stroke-width:1" /><text x="1570" y="180" font-size="10" style="fill:blue">xsl:value-of</text><path d="M1540 190 C1560 190 1540 190 1560 190" style="fill:transparent;stroke:black" /><text x="1570" y="190" font-size="8" style="fill:black">select: /hitos/hito/coordenadas/altitud</text></svg>