<?xml version="1.0" encoding="utf-8"?><svg width="auto" height="3970" style="overflow:visible " version="1.1" xmlns="http://www.w3.org/2000/svg"><rect x="20" y="20" width="200" height="40" style="fill:white;stroke:black;stroke-width:1" /><text x="30" y="30" font-size="10" style="fill:blue">xs:schema</text><text x="30" y="40" font-size="8" style="fill:black">xmlns:xs: http://www.w3.org/2001/XMLSchema</text><rect x="240" y="20" width="200" height="40" style="fill:white;stroke:black;stroke-width:1" /><text x="250" y="30" font-size="10" style="fill:blue">xs:element</text><path d="M220 40 C240 40 220 40 240 40" style="fill:transparent;stroke:black" /><text x="250" y="40" font-size="8" style="fill:black">name: Agencia</text><text x="250" y="50" font-size="8" style="fill:black">type: xs:string</text><rect x="240" y="70" width="200" height="40" style="fill:white;stroke:black;stroke-width:1" /><text x="250" y="80" font-size="10" style="fill:blue">xs:element</text><path d="M220 40 C240 40 220 90 240 90" style="fill:transparent;stroke:black" /><text x="250" y="90" font-size="8" style="fill:black">name: fecha-fin</text><text x="250" y="100" font-size="8" style="fill:black">type: xs:date</text><rect x="240" y="120" width="200" height="40" style="fill:white;stroke:black;stroke-width:1" /><text x="250" y="130" font-size="10" style="fill:blue">xs:element</text><path d="M220 40 C240 40 220 140 240 140" style="fill:transparent;stroke:black" /><text x="250" y="140" font-size="8" style="fill:black">name: medio-transporte</text><text x="250" y="150" font-size="8" style="fill:black">type: xs:string</text><rect x="240" y="170" width="200" height="40" style="fill:white;stroke:black;stroke-width:1" /><text x="250" y="180" font-size="10" style="fill:blue">xs:element</text><path d="M220 40 C240 40 220 190 240 190" style="fill:transparent;stroke:black" /><text x="250" y="190" font-size="8" style="fill:black">name: fecha-inicio</text><text x="250" y="200" font-size="8" style="fill:black">type: xs:date</text><rect x="240" y="220" width="200" height="40" style="fill:white;stroke:black;stroke-width:1" /><text x="250" y="230" font-size="10" style="fill:blue">xs:element</text><path d="M220 40 C240 40 220 240 240 240" style="fill:transparent;stroke:black" /><text x="250" y="240" font-size="8" style="fill:black">name: tiempo-duracion</text><text x="250" y="250" font-size="8" style="fill:black">type: xs:duration</text><rect x="240" y="270" width="200" height="40" style="fill:white;stroke:black;stroke-width:1" /><text x="250" y="280" font-size="10" style="fill:blue">xs:element</text><path d="M220 40 C240 40 220 290 240 290" style="fill:transparent;stroke:black" /><text x="250" y="290" font-size="8" style="fill:black">name: descripcion</text><text x="250" y="300" font-size="8" style="fill:black">type: xs:string</text><rect x="240" y="320" width="200" height="40" style="fill:white;stroke:black;stroke-width:1" /><text x="250" y="330" font-size="10" style="fill:blue">xs:element</text><path d="M220 40 C240 40 220 340 240 340" style="fill:transparent;stroke:black" /><text x="250" y="340" font-size="8" style="fill:black">name: lugar-inicio</text><text x="250" y="350" font-size="8" style="fill:black">type: xs:string</text><rect x="240" y="370" width="200" height="40" style="fill:white;stroke:black;stroke-width:1" /><text x="250" y="380" font-size="10" style="fill:blue">xs:element</text><path d="M220 40 C240 40 220 390 240 390" style="fill:transparent;stroke:black" /><text x="250" y="390" font-size="8" style="fill:black">name: direccion-inicio</text><text x="250" y="400" font-size="8" style="fill:black">type: xs:string</text><rect x="240" y="420" width="200" height="40" style="fill:white;stroke:black;stroke-width:1" /><text x="250" y="430" font-size="10" style="fill:blue">xs:element</text><path d="M220 40 C240 40 220 440 240 440" style="fill:transparent;stroke:black" /><text x="250" y="440" font-size="8" style="fill:black">name: recomendacion</text><rect x="460" y="420" width="200" height="40" style="fill:white;stroke:black;stroke-width:1" /><text x="470" y="430" font-size="10" style="fill:blue">xs:simpleType</text><path d="M440 440 C460 440 440 440 460 440" style="fill:transparent;stroke:black" /><rect x="680" y="420" width="200" height="40" style="fill:white;stroke:black;stroke-width:1" /><text x="690" y="430" font-size="10" style="fill:blue">xs:restriction</text><path d="M660 440 C680 440 660 440 680 440" style="fill:transparent;stroke:black" /><text x="690" y="440" font-size="8" style="fill:black">base: xs:integer</text><rect x="900" y="420" width="200" height="40" style="fill:white;stroke:black;stroke-width:1" /><text x="910" y="430" font-size="10" style="fill:blue">xs:minInclusive</text><path d="M880 440 C900 440 880 440 900 440" style="fill:transparent;stroke:black" /><text x="910" y="440" font-size="8" style="fill:black">value: 0</text><rect x="900" y="470" width="200" height="40" style="fill:white;stroke:black;stroke-width:1" /><text x="910" y="480" font-size="10" style="fill:blue">xs:maxInclusive</text><path d="M880 440 C900 440 880 490 900 490" style="fill:transparent;stroke:black" /><text x="910" y="490" font-size="8" style="fill:black">value: 10</text><rect x="240" y="670" width="200" height="40" style="fill:white;stroke:black;stroke-width:1" /><text x="250" y="680" font-size="10" style="fill:blue">xs:element</text><path d="M220 40 C240 40 220 690 240 690" style="fill:transparent;stroke:black" /><text x="250" y="690" font-size="8" style="fill:black">name: rutasTuristicas</text><rect x="460" y="670" width="200" height="40" style="fill:white;stroke:black;stroke-width:1" /><text x="470" y="680" font-size="10" style="fill:blue">xs:complexType</text><path d="M440 690 C460 690 440 690 460 690" style="fill:transparent;stroke:black" /><rect x="680" y="670" width="200" height="40" style="fill:white;stroke:black;stroke-width:1" /><text x="690" y="680" font-size="10" style="fill:blue">xs:sequence</text><path d="M660 690 C680 690 660 690 680 690" style="fill:transparent;stroke:black" /><rect x="900" y="670" width="200" height="40" style="fill:white;stroke:black;stroke-width:1" /><text x="910" y="680" font-size="10" style="fill:blue">xs:element</text><path d="M880 690 C900 690 880 690 900 690" style="fill:transparent;stroke:black" /><text x="910" y="690" font-size="8" style="fill:black">minOccurs: 5</text><text x="910" y="700" font-size="8" style="fill:black">maxOccurs: unbounded</text><text x="910" y="710" font-size="8" style="fill:black">ref: rutaTuristica</text><rect x="240" y="870" width="200" height="40" style="fill:white;stroke:black;stroke-width:1" /><text x="250" y="880" font-size="10" style="fill:blue">xs:element</text><path d="M220 40 C240 40 220 890 240 890" style="fill:transparent;stroke:black" /><text x="250" y="890" font-size="8" style="fill:black">name: rutaTuristica</text><rect x="460" y="870" width="200" height="40" style="fill:white;stroke:black;stroke-width:1" /><text x="470" y="880" font-size="10" style="fill:blue">xs:complexType</text><path d="M440 890 C460 890 440 890 460 890" style="fill:transparent;stroke:black" /><rect x="680" y="870" width="200" height="40" style="fill:white;stroke:black;stroke-width:1" /><text x="690" y="880" font-size="10" style="fill:blue">xs:sequence</text><path d="M660 890 C680 890 660 890 680 890" style="fill:transparent;stroke:black" /><rect x="900" y="870" width="200" height="40" style="fill:white;stroke:black;stroke-width:1" /><text x="910" y="880" font-size="10" style="fill:blue">xs:element</text><path d="M880 890 C900 890 880 890 900 890" style="fill:transparent;stroke:black" /><text x="910" y="890" font-size="8" style="fill:black">ref: medio-transporte</text><rect x="900" y="920" width="200" height="40" style="fill:white;stroke:black;stroke-width:1" /><text x="910" y="930" font-size="10" style="fill:blue">xs:element</text><path d="M880 890 C900 890 880 940 900 940" style="fill:transparent;stroke:black" /><text x="910" y="940" font-size="8" style="fill:black">ref: fecha-inicio</text><rect x="900" y="970" width="200" height="40" style="fill:white;stroke:black;stroke-width:1" /><text x="910" y="980" font-size="10" style="fill:blue">xs:element</text><path d="M880 890 C900 890 880 990 900 990" style="fill:transparent;stroke:black" /><text x="910" y="990" font-size="8" style="fill:black">ref: fecha-fin</text><rect x="900" y="1020" width="200" height="40" style="fill:white;stroke:black;stroke-width:1" /><text x="910" y="1030" font-size="10" style="fill:blue">xs:element</text><path d="M880 890 C900 890 880 1040 900 1040" style="fill:transparent;stroke:black" /><text x="910" y="1040" font-size="8" style="fill:black">ref: tiempo-duracion</text><rect x="900" y="1070" width="200" height="40" style="fill:white;stroke:black;stroke-width:1" /><text x="910" y="1080" font-size="10" style="fill:blue">xs:element</text><path d="M880 890 C900 890 880 1090 900 1090" style="fill:transparent;stroke:black" /><text x="910" y="1090" font-size="8" style="fill:black">ref: Agencia</text><rect x="900" y="1120" width="200" height="40" style="fill:white;stroke:black;stroke-width:1" /><text x="910" y="1130" font-size="10" style="fill:blue">xs:element</text><path d="M880 890 C900 890 880 1140 900 1140" style="fill:transparent;stroke:black" /><text x="910" y="1140" font-size="8" style="fill:black">ref: descripcion</text><rect x="900" y="1170" width="200" height="40" style="fill:white;stroke:black;stroke-width:1" /><text x="910" y="1180" font-size="10" style="fill:blue">xs:element</text><path d="M880 890 C900 890 880 1190 900 1190" style="fill:transparent;stroke:black" /><text x="910" y="1190" font-size="8" style="fill:black">ref: persona-adecuadas</text><rect x="900" y="1220" width="200" height="40" style="fill:white;stroke:black;stroke-width:1" /><text x="910" y="1230" font-size="10" style="fill:blue">xs:element</text><path d="M880 890 C900 890 880 1240 900 1240" style="fill:transparent;stroke:black" /><text x="910" y="1240" font-size="8" style="fill:black">ref: lugar-inicio</text><rect x="900" y="1270" width="200" height="40" style="fill:white;stroke:black;stroke-width:1" /><text x="910" y="1280" font-size="10" style="fill:blue">xs:element</text><path d="M880 890 C900 890 880 1290 900 1290" style="fill:transparent;stroke:black" /><text x="910" y="1290" font-size="8" style="fill:black">ref: direccion-inicio</text><rect x="900" y="1320" width="200" height="40" style="fill:white;stroke:black;stroke-width:1" /><text x="910" y="1330" font-size="10" style="fill:blue">xs:element</text><path d="M880 890 C900 890 880 1340 900 1340" style="fill:transparent;stroke:black" /><text x="910" y="1340" font-size="8" style="fill:black">ref: coordenadas</text><rect x="900" y="1370" width="200" height="40" style="fill:white;stroke:black;stroke-width:1" /><text x="910" y="1380" font-size="10" style="fill:blue">xs:element</text><path d="M880 890 C900 890 880 1390 900 1390" style="fill:transparent;stroke:black" /><text x="910" y="1390" font-size="8" style="fill:black">ref: referencias</text><rect x="900" y="1420" width="200" height="40" style="fill:white;stroke:black;stroke-width:1" /><text x="910" y="1430" font-size="10" style="fill:blue">xs:element</text><path d="M880 890 C900 890 880 1440 900 1440" style="fill:transparent;stroke:black" /><text x="910" y="1440" font-size="8" style="fill:black">ref: recomendacion</text><rect x="900" y="1470" width="200" height="40" style="fill:white;stroke:black;stroke-width:1" /><text x="910" y="1480" font-size="10" style="fill:blue">xs:element</text><path d="M880 890 C900 890 880 1490 900 1490" style="fill:transparent;stroke:black" /><text x="910" y="1490" font-size="8" style="fill:black">ref: hitos</text><rect x="680" y="1570" width="200" height="40" style="fill:white;stroke:black;stroke-width:1" /><text x="690" y="1580" font-size="10" style="fill:blue">xs:attribute</text><path d="M660 890 C680 890 660 1590 680 1590" style="fill:transparent;stroke:black" /><text x="690" y="1590" font-size="8" style="fill:black">name: nombre</text><text x="690" y="1600" font-size="8" style="fill:black">type: xs:string</text><text x="690" y="1610" font-size="8" style="fill:black">use: required</text><rect x="680" y="1620" width="200" height="40" style="fill:white;stroke:black;stroke-width:1" /><text x="690" y="1630" font-size="10" style="fill:blue">xs:attribute</text><path d="M660 890 C680 890 660 1640 680 1640" style="fill:transparent;stroke:black" /><text x="690" y="1640" font-size="8" style="fill:black">name: tipo</text><text x="690" y="1650" font-size="8" style="fill:black">type: xs:string</text><text x="690" y="1660" font-size="8" style="fill:black">use: required</text><rect x="240" y="1770" width="200" height="40" style="fill:white;stroke:black;stroke-width:1" /><text x="250" y="1780" font-size="10" style="fill:blue">xs:element</text><path d="M220 40 C240 40 220 1790 240 1790" style="fill:transparent;stroke:black" /><text x="250" y="1790" font-size="8" style="fill:black">name: persona-adecuadas</text><rect x="460" y="1770" width="200" height="40" style="fill:white;stroke:black;stroke-width:1" /><text x="470" y="1780" font-size="10" style="fill:blue">xs:complexType</text><path d="M440 1790 C460 1790 440 1790 460 1790" style="fill:transparent;stroke:black" /><rect x="680" y="1770" width="200" height="40" style="fill:white;stroke:black;stroke-width:1" /><text x="690" y="1780" font-size="10" style="fill:blue">xs:sequence</text><path d="M660 1790 C680 1790 660 1790 680 1790" style="fill:transparent;stroke:black" /><rect x="900" y="1770" width="200" height="40" style="fill:white;stroke:black;stroke-width:1" /><text x="910" y="1780" font-size="10" style="fill:blue">xs:element</text><path d="M880 1790 C900 1790 880 1790 900 1790" style="fill:transparent;stroke:black" /><text x="910" y="1790" font-size="8" style="fill:black">minOccurs: 0</text><text x="910" y="1800" font-size="8" style="fill:black">maxOccurs: unbounded</text><text x="910" y="1810" font-size="8" style="fill:black">ref: persona</text><rect x="240" y="1970" width="200" height="40" style="fill:white;stroke:black;stroke-width:1" /><text x="250" y="1980" font-size="10" style="fill:blue">xs:element</text><path d="M220 40 C240 40 220 1990 240 1990" style="fill:transparent;stroke:black" /><text x="250" y="1990" font-size="8" style="fill:black">name: persona</text><text x="250" y="2000" font-size="8" style="fill:black">type: xs:string</text><rect x="240" y="2020" width="200" height="40" style="fill:white;stroke:black;stroke-width:1" /><text x="250" y="2030" font-size="10" style="fill:blue">xs:element</text><path d="M220 40 C240 40 220 2040 240 2040" style="fill:transparent;stroke:black" /><text x="250" y="2040" font-size="8" style="fill:black">name: coordenadas</text><rect x="460" y="2020" width="200" height="40" style="fill:white;stroke:black;stroke-width:1" /><text x="470" y="2030" font-size="10" style="fill:blue">xs:complexType</text><path d="M440 2040 C460 2040 440 2040 460 2040" style="fill:transparent;stroke:black" /><rect x="680" y="2020" width="200" height="40" style="fill:white;stroke:black;stroke-width:1" /><text x="690" y="2030" font-size="10" style="fill:blue">xs:sequence</text><path d="M660 2040 C680 2040 660 2040 680 2040" style="fill:transparent;stroke:black" /><rect x="900" y="2020" width="200" height="40" style="fill:white;stroke:black;stroke-width:1" /><text x="910" y="2030" font-size="10" style="fill:blue">xs:element</text><path d="M880 2040 C900 2040 880 2040 900 2040" style="fill:transparent;stroke:black" /><text x="910" y="2040" font-size="8" style="fill:black">ref: latitud</text><rect x="900" y="2070" width="200" height="40" style="fill:white;stroke:black;stroke-width:1" /><text x="910" y="2080" font-size="10" style="fill:blue">xs:element</text><path d="M880 2040 C900 2040 880 2090 900 2090" style="fill:transparent;stroke:black" /><text x="910" y="2090" font-size="8" style="fill:black">ref: longitud</text><rect x="900" y="2120" width="200" height="40" style="fill:white;stroke:black;stroke-width:1" /><text x="910" y="2130" font-size="10" style="fill:blue">xs:element</text><path d="M880 2040 C900 2040 880 2140 900 2140" style="fill:transparent;stroke:black" /><text x="910" y="2140" font-size="8" style="fill:black">ref: altura</text><rect x="240" y="2320" width="200" height="40" style="fill:white;stroke:black;stroke-width:1" /><text x="250" y="2330" font-size="10" style="fill:blue">xs:element</text><path d="M220 40 C240 40 220 2340 240 2340" style="fill:transparent;stroke:black" /><text x="250" y="2340" font-size="8" style="fill:black">name: latitud</text><text x="250" y="2350" font-size="8" style="fill:black">type: xs:double</text><rect x="240" y="2370" width="200" height="40" style="fill:white;stroke:black;stroke-width:1" /><text x="250" y="2380" font-size="10" style="fill:blue">xs:element</text><path d="M220 40 C240 40 220 2390 240 2390" style="fill:transparent;stroke:black" /><text x="250" y="2390" font-size="8" style="fill:black">name: longitud</text><text x="250" y="2400" font-size="8" style="fill:black">type: xs:double</text><rect x="240" y="2420" width="200" height="40" style="fill:white;stroke:black;stroke-width:1" /><text x="250" y="2430" font-size="10" style="fill:blue">xs:element</text><path d="M220 40 C240 40 220 2440 240 2440" style="fill:transparent;stroke:black" /><text x="250" y="2440" font-size="8" style="fill:black">name: altura</text><text x="250" y="2450" font-size="8" style="fill:black">type: xs:integer</text><rect x="240" y="2470" width="200" height="40" style="fill:white;stroke:black;stroke-width:1" /><text x="250" y="2480" font-size="10" style="fill:blue">xs:element</text><path d="M220 40 C240 40 220 2490 240 2490" style="fill:transparent;stroke:black" /><text x="250" y="2490" font-size="8" style="fill:black">name: referencias</text><rect x="460" y="2470" width="200" height="40" style="fill:white;stroke:black;stroke-width:1" /><text x="470" y="2480" font-size="10" style="fill:blue">xs:complexType</text><path d="M440 2490 C460 2490 440 2490 460 2490" style="fill:transparent;stroke:black" /><rect x="680" y="2470" width="200" height="40" style="fill:white;stroke:black;stroke-width:1" /><text x="690" y="2480" font-size="10" style="fill:blue">xs:sequence</text><path d="M660 2490 C680 2490 660 2490 680 2490" style="fill:transparent;stroke:black" /><rect x="900" y="2470" width="200" height="40" style="fill:white;stroke:black;stroke-width:1" /><text x="910" y="2480" font-size="10" style="fill:blue">xs:element</text><path d="M880 2490 C900 2490 880 2490 900 2490" style="fill:transparent;stroke:black" /><text x="910" y="2490" font-size="8" style="fill:black">minOccurs: 1</text><text x="910" y="2500" font-size="8" style="fill:black">maxOccurs: 3</text><text x="910" y="2510" font-size="8" style="fill:black">ref: referencia</text><rect x="240" y="2670" width="200" height="40" style="fill:white;stroke:black;stroke-width:1" /><text x="250" y="2680" font-size="10" style="fill:blue">xs:element</text><path d="M220 40 C240 40 220 2690 240 2690" style="fill:transparent;stroke:black" /><text x="250" y="2690" font-size="8" style="fill:black">name: referencia</text><text x="250" y="2700" font-size="8" style="fill:black">type: xs:string</text><rect x="240" y="2720" width="200" height="40" style="fill:white;stroke:black;stroke-width:1" /><text x="250" y="2730" font-size="10" style="fill:blue">xs:element</text><path d="M220 40 C240 40 220 2740 240 2740" style="fill:transparent;stroke:black" /><text x="250" y="2740" font-size="8" style="fill:black">name: hitos</text><rect x="460" y="2720" width="200" height="40" style="fill:white;stroke:black;stroke-width:1" /><text x="470" y="2730" font-size="10" style="fill:blue">xs:complexType</text><path d="M440 2740 C460 2740 440 2740 460 2740" style="fill:transparent;stroke:black" /><rect x="680" y="2720" width="200" height="40" style="fill:white;stroke:black;stroke-width:1" /><text x="690" y="2730" font-size="10" style="fill:blue">xs:sequence</text><path d="M660 2740 C680 2740 660 2740 680 2740" style="fill:transparent;stroke:black" /><rect x="900" y="2720" width="200" height="40" style="fill:white;stroke:black;stroke-width:1" /><text x="910" y="2730" font-size="10" style="fill:blue">xs:element</text><path d="M880 2740 C900 2740 880 2740 900 2740" style="fill:transparent;stroke:black" /><text x="910" y="2740" font-size="8" style="fill:black">minOccurs: 3</text><text x="910" y="2750" font-size="8" style="fill:black">maxOccurs: unbounded</text><text x="910" y="2760" font-size="8" style="fill:black">ref: hito</text><rect x="240" y="2920" width="200" height="40" style="fill:white;stroke:black;stroke-width:1" /><text x="250" y="2930" font-size="10" style="fill:blue">xs:element</text><path d="M220 40 C240 40 220 2940 240 2940" style="fill:transparent;stroke:black" /><text x="250" y="2940" font-size="8" style="fill:black">name: hito</text><rect x="460" y="2920" width="200" height="40" style="fill:white;stroke:black;stroke-width:1" /><text x="470" y="2930" font-size="10" style="fill:blue">xs:complexType</text><path d="M440 2940 C460 2940 440 2940 460 2940" style="fill:transparent;stroke:black" /><rect x="680" y="2920" width="200" height="40" style="fill:white;stroke:black;stroke-width:1" /><text x="690" y="2930" font-size="10" style="fill:blue">xs:sequence</text><path d="M660 2940 C680 2940 660 2940 680 2940" style="fill:transparent;stroke:black" /><rect x="900" y="2920" width="200" height="40" style="fill:white;stroke:black;stroke-width:1" /><text x="910" y="2930" font-size="10" style="fill:blue">xs:element</text><path d="M880 2940 C900 2940 880 2940 900 2940" style="fill:transparent;stroke:black" /><text x="910" y="2940" font-size="8" style="fill:black">ref: descripcion</text><rect x="900" y="2970" width="200" height="40" style="fill:white;stroke:black;stroke-width:1" /><text x="910" y="2980" font-size="10" style="fill:blue">xs:element</text><path d="M880 2940 C900 2940 880 2990 900 2990" style="fill:transparent;stroke:black" /><text x="910" y="2990" font-size="8" style="fill:black">ref: coordenadas</text><rect x="900" y="3020" width="200" height="40" style="fill:white;stroke:black;stroke-width:1" /><text x="910" y="3030" font-size="10" style="fill:blue">xs:element</text><path d="M880 2940 C900 2940 880 3040 900 3040" style="fill:transparent;stroke:black" /><text x="910" y="3040" font-size="8" style="fill:black">ref: distancia-anterior</text><rect x="900" y="3070" width="200" height="40" style="fill:white;stroke:black;stroke-width:1" /><text x="910" y="3080" font-size="10" style="fill:blue">xs:element</text><path d="M880 2940 C900 2940 880 3090 900 3090" style="fill:transparent;stroke:black" /><text x="910" y="3090" font-size="8" style="fill:black">ref: galeria-img</text><rect x="900" y="3120" width="200" height="40" style="fill:white;stroke:black;stroke-width:1" /><text x="910" y="3130" font-size="10" style="fill:blue">xs:element</text><path d="M880 2940 C900 2940 880 3140 900 3140" style="fill:transparent;stroke:black" /><text x="910" y="3140" font-size="8" style="fill:black">ref: galeria-video</text><rect x="680" y="3220" width="200" height="40" style="fill:white;stroke:black;stroke-width:1" /><text x="690" y="3230" font-size="10" style="fill:blue">xs:attribute</text><path d="M660 2940 C680 2940 660 3240 680 3240" style="fill:transparent;stroke:black" /><text x="690" y="3240" font-size="8" style="fill:black">name: nombre</text><text x="690" y="3250" font-size="8" style="fill:black">type: xs:string</text><text x="690" y="3260" font-size="8" style="fill:black">use: required</text><rect x="240" y="3370" width="200" height="40" style="fill:white;stroke:black;stroke-width:1" /><text x="250" y="3380" font-size="10" style="fill:blue">xs:element</text><path d="M220 40 C240 40 220 3390 240 3390" style="fill:transparent;stroke:black" /><text x="250" y="3390" font-size="8" style="fill:black">name: distancia-anterior</text><text x="250" y="3400" font-size="8" style="fill:black">type: xs:integer</text><rect x="240" y="3420" width="200" height="40" style="fill:white;stroke:black;stroke-width:1" /><text x="250" y="3430" font-size="10" style="fill:blue">xs:element</text><path d="M220 40 C240 40 220 3440 240 3440" style="fill:transparent;stroke:black" /><text x="250" y="3440" font-size="8" style="fill:black">name: galeria-img</text><rect x="460" y="3420" width="200" height="40" style="fill:white;stroke:black;stroke-width:1" /><text x="470" y="3430" font-size="10" style="fill:blue">xs:complexType</text><path d="M440 3440 C460 3440 440 3440 460 3440" style="fill:transparent;stroke:black" /><rect x="680" y="3420" width="200" height="40" style="fill:white;stroke:black;stroke-width:1" /><text x="690" y="3430" font-size="10" style="fill:blue">xs:sequence</text><path d="M660 3440 C680 3440 660 3440 680 3440" style="fill:transparent;stroke:black" /><rect x="900" y="3420" width="200" height="40" style="fill:white;stroke:black;stroke-width:1" /><text x="910" y="3430" font-size="10" style="fill:blue">xs:element</text><path d="M880 3440 C900 3440 880 3440 900 3440" style="fill:transparent;stroke:black" /><text x="910" y="3440" font-size="8" style="fill:black">minOccurs: 1</text><text x="910" y="3450" font-size="8" style="fill:black">maxOccurs: 5</text><text x="910" y="3460" font-size="8" style="fill:black">ref: img</text><rect x="240" y="3620" width="200" height="40" style="fill:white;stroke:black;stroke-width:1" /><text x="250" y="3630" font-size="10" style="fill:blue">xs:element</text><path d="M220 40 C240 40 220 3640 240 3640" style="fill:transparent;stroke:black" /><text x="250" y="3640" font-size="8" style="fill:black">name: img</text><text x="250" y="3650" font-size="8" style="fill:black">type: xs:string</text><rect x="240" y="3670" width="200" height="40" style="fill:white;stroke:black;stroke-width:1" /><text x="250" y="3680" font-size="10" style="fill:blue">xs:element</text><path d="M220 40 C240 40 220 3690 240 3690" style="fill:transparent;stroke:black" /><text x="250" y="3690" font-size="8" style="fill:black">name: galeria-video</text><rect x="460" y="3670" width="200" height="40" style="fill:white;stroke:black;stroke-width:1" /><text x="470" y="3680" font-size="10" style="fill:blue">xs:complexType</text><path d="M440 3690 C460 3690 440 3690 460 3690" style="fill:transparent;stroke:black" /><rect x="680" y="3670" width="200" height="40" style="fill:white;stroke:black;stroke-width:1" /><text x="690" y="3680" font-size="10" style="fill:blue">xs:sequence</text><path d="M660 3690 C680 3690 660 3690 680 3690" style="fill:transparent;stroke:black" /><rect x="900" y="3670" width="200" height="40" style="fill:white;stroke:black;stroke-width:1" /><text x="910" y="3680" font-size="10" style="fill:blue">xs:element</text><path d="M880 3690 C900 3690 880 3690 900 3690" style="fill:transparent;stroke:black" /><text x="910" y="3690" font-size="8" style="fill:black">minOccurs: 0</text><text x="910" y="3700" font-size="8" style="fill:black">maxOccurs: 3</text><text x="910" y="3710" font-size="8" style="fill:black">ref: video</text><rect x="240" y="3870" width="200" height="40" style="fill:white;stroke:black;stroke-width:1" /><text x="250" y="3880" font-size="10" style="fill:blue">xs:element</text><path d="M220 40 C240 40 220 3890 240 3890" style="fill:transparent;stroke:black" /><text x="250" y="3890" font-size="8" style="fill:black">name: video</text><text x="250" y="3900" font-size="8" style="fill:black">type: xs:string</text></svg>